<svg width="607" height="192" viewBox="0 0 607 192" fill="none" xmlns="http://www.w3.org/2000/svg">
<path d="M42.8811 95.2401H87.706V95.1592C88.1163 95.1389 88.5939 95.1254 89.1387 95.1052H134.253C134.522 94.7343 134.784 94.3566 135.026 93.9789C140.542 85.751 143.73 75.9719 143.73 65.478C143.73 58.0256 142.123 50.924 139.21 44.4901C132.127 28.83 117.363 17.0884 99.4571 13.6354C95.919 12.961 92.2598 12.5968 88.5132 12.5968C82.5603 12.5968 76.8294 13.5005 71.4617 15.1663C55.0021 20.2851 41.9259 32.6 36.3026 48.2398C34.3519 53.6419 33.2959 59.4419 33.2959 65.478C33.2959 75.8303 36.4035 85.488 41.7779 93.6417C42.1277 94.188 42.5044 94.714 42.8811 95.2401V95.2401Z" stroke="#1F71FF" stroke-width="7" stroke-miterlimit="10"/>
<path d="M71.4615 15.1677C55.0019 20.2865 41.9324 32.6014 36.3024 48.2412C28.1769 43.9654 22.6343 35.4205 22.6343 25.5807C22.6343 11.4516 34.0625 0 48.1476 0C58.54 0 67.4794 6.23163 71.4547 15.1677H71.4615Z" fill="#1F71FF"/>
<path d="M147.545 25.5807C147.545 33.0735 144.336 39.811 139.217 44.4914C132.134 28.8247 117.37 17.083 99.4641 13.6368C103.735 5.53024 112.244 0 122.031 0C136.123 0 147.545 11.4516 147.545 25.5807Z" fill="#1F71FF"/>
<path d="M75.9171 64.67C78.6304 55.9516 75.2328 47.1327 68.3282 44.9725C61.4236 42.8123 53.6267 48.1288 50.9134 56.8472C48.2001 65.5656 51.5978 74.3845 58.5023 76.5447C65.4069 78.7049 73.2038 73.3884 75.9171 64.67Z" fill="#1F71FF"/>
<path d="M114.969 76.6911C121.873 74.5309 125.271 65.7121 122.558 56.9937C119.844 48.2752 112.048 42.9588 105.143 45.119C98.2384 47.2792 94.8407 56.098 97.554 64.8164C100.267 73.5348 108.064 78.8513 114.969 76.6911Z" fill="#1F71FF"/>
<path d="M73.7293 62.5964C75.1224 58.1199 73.377 53.5915 69.8307 52.482C66.2845 51.3725 62.2803 54.1021 60.8871 58.5786C59.4939 63.0551 61.2393 67.5835 64.7856 68.693C68.3319 69.8025 72.3361 67.073 73.7293 62.5964Z" fill="white"/>
<path d="M108.77 68.6278C112.316 67.5183 114.061 62.9899 112.668 58.5134C111.275 54.0368 107.271 51.3073 103.725 52.4168C100.178 53.5263 98.4329 58.0547 99.826 62.5312C101.219 67.0077 105.223 69.7373 108.77 68.6278Z" fill="white"/>
<path d="M85.2841 73.6865H90.5576C92.7908 73.6865 94.6069 75.5075 94.6069 77.7465C94.6069 81.1928 91.8155 83.9984 88.3715 83.9984H87.5509C84.0868 83.9984 81.2751 81.1793 81.2751 77.7061C81.2751 75.4872 83.0711 73.6933 85.2774 73.6933L85.2841 73.6865Z" fill="#1F71FF"/>
<path d="M70.9099 84.1736C70.9099 84.1736 82.3247 96.0097 88.2305 81.8806" stroke="#1F71FF" stroke-width="5" stroke-miterlimit="10"/>
<path d="M104.704 84.2824C104.704 84.2824 93.2891 96.1185 87.3833 81.9894" stroke="#1F71FF" stroke-width="5" stroke-miterlimit="10"/>
<path d="M89.4089 188.744C89.1062 189.028 88.6421 189.129 88.2318 188.913L17.4226 152.123V105.298L68.3081 112.555L70.6556 112.892L88.0502 95.4384V186.91C88.0502 187.807 88.6488 188.508 89.4089 188.744Z" fill="#ED1E79" stroke="white" stroke-width="5" stroke-miterlimit="10"/>
<path d="M89.725 93.5092V188.002C89.725 188.299 89.604 188.562 89.4089 188.744C88.6488 188.508 88.0502 187.806 88.0502 186.909V94.4331H17.4226V93.5092C17.4226 92.3559 29.5033 92.1401 43.797 92.2952C64.4538 92.5245 89.725 93.5092 89.725 93.5092V93.5092Z" fill="#ED1E79" stroke="white" stroke-width="5" stroke-miterlimit="10"/>
<path d="M160.304 93.759H91.1562C98.9993 93.4758 120.167 92.7541 137.044 92.6327C149.481 92.5451 159.584 92.7811 160.304 93.759V93.759Z" fill="#ED1E79" stroke="white" stroke-width="5" stroke-miterlimit="10"/>
<path d="M160.351 104.543V152.487L90.8404 188.609C90.3696 188.852 89.8584 188.879 89.4077 188.744C89.6028 188.562 89.7238 188.299 89.7238 188.002V95.2965L106.587 112.218L116.529 110.801L160.345 104.543H160.351Z" fill="#ED1E79" stroke="white" stroke-width="5" stroke-miterlimit="10"/>
<path d="M88.2987 93.8657C88.5677 93.8522 89.052 93.8319 89.7247 93.8117V188.001C89.7247 188.298 89.6036 188.561 89.4085 188.743C88.6485 188.507 88.0498 187.806 88.0498 186.909V93.8724C88.0498 93.8724 88.1372 93.8724 88.2987 93.8657Z" fill="#ED1E79" stroke="white" stroke-width="5" stroke-miterlimit="10"/>
<path d="M116.536 110.795L116.529 110.802L106.588 112.218L116.536 110.795Z" fill="#ED1E79" stroke="white" stroke-width="5" stroke-miterlimit="10"/>
<path d="M88.0491 94.4338V95.4387L70.6545 112.893L68.307 112.555L17.4215 105.299L6 103.667L16.7488 94.4338H88.0491Z" fill="#ED1E79" stroke="white" stroke-width="5" stroke-miterlimit="10"/>
<path d="M89.052 94.4338L88.0498 95.4387V94.4338H89.052Z" fill="#ED1E79" stroke="white" stroke-width="5" stroke-miterlimit="10"/>
<path d="M171.235 102.991L160.351 104.542L116.535 110.794L106.587 112.217L89.7236 95.2959V93.8122C90.1339 93.792 90.6115 93.7785 91.1564 93.7582H160.492L171.235 102.991V102.991Z" fill="#ED1E79" stroke="white" stroke-width="5" stroke-miterlimit="10"/>
<path d="M116.536 110.795L116.529 110.802L106.588 112.218L116.536 110.795Z" fill="#ED1E79" stroke="white" stroke-width="5" stroke-miterlimit="10"/>
<path d="M91.1568 93.7582C90.6119 93.7785 90.1344 93.792 89.7241 93.8122V95.2959L88.9572 94.5271L88.8631 94.4327L88.1904 93.7582H91.1568V93.7582Z" fill="#ED1E79" stroke="white" stroke-width="5" stroke-miterlimit="10"/>
<path d="M56.9658 81.6181H50.6564C49.5197 81.6181 48.5981 82.5421 48.5981 83.6818C48.5981 84.8216 49.5197 85.7456 50.6564 85.7456H56.9658C58.1026 85.7456 59.0241 84.8216 59.0241 83.6818C59.0241 82.5421 58.1026 81.6181 56.9658 81.6181Z" fill="#ED1E79"/>
<path d="M122.071 81.5709H115.761C114.624 81.5709 113.703 82.4949 113.703 83.6346C113.703 84.7744 114.624 85.6984 115.761 85.6984H122.071C123.207 85.6984 124.129 84.7744 124.129 83.6346C124.129 82.4949 123.207 81.5709 122.071 81.5709Z" fill="#ED1E79"/>
<path d="M196.438 137.313V56.2012H243.713V70.5696H210.478V87.8347H236.144V102.203H210.478V137.313H196.438ZM274.56 138.471C267.942 138.471 262.421 137.081 257.997 134.3C253.61 131.48 250.319 127.772 248.126 123.176C245.932 118.541 244.835 113.481 244.835 107.997C244.835 102.705 245.859 97.819 247.906 93.3386C249.99 88.8581 253.025 85.2662 257.01 82.5624C260.996 79.82 265.858 78.4489 271.599 78.4489C276.864 78.4489 281.251 79.5883 284.761 81.8672C288.271 84.146 290.903 87.1973 292.658 91.0212C294.413 94.8064 295.291 98.9971 295.291 103.593C295.291 104.868 295.218 106.162 295.071 107.475C294.925 108.75 294.706 110.082 294.413 111.473H258.985C259.497 115.065 260.557 117.981 262.166 120.221C263.811 122.423 265.803 124.045 268.143 125.088C270.52 126.131 273.061 126.652 275.767 126.652C278.948 126.652 281.909 126.227 284.651 125.378C287.393 124.489 289.916 123.331 292.22 121.901L292.878 134.068C290.794 135.227 288.198 136.25 285.09 137.139C281.982 138.027 278.472 138.471 274.56 138.471ZM259.314 101.739H281.47C281.47 100.001 281.16 98.2633 280.538 96.5251C279.916 94.7484 278.874 93.2614 277.412 92.064C275.986 90.8666 274.048 90.268 271.599 90.268C268.089 90.268 265.328 91.3494 263.317 93.5125C261.306 95.6754 259.972 98.4177 259.314 101.739ZM331.009 138.471C324.392 138.471 318.871 137.081 314.448 134.3C310.06 131.48 306.769 127.772 304.576 123.176C302.382 118.541 301.285 113.481 301.285 107.997C301.285 102.705 302.309 97.819 304.356 93.3386C306.44 88.8581 309.475 85.2662 313.46 82.5624C317.445 79.82 322.308 78.4489 328.048 78.4489C333.313 78.4489 337.701 79.5883 341.211 81.8672C344.721 84.146 347.353 87.1973 349.108 91.0212C350.863 94.8064 351.74 98.9971 351.74 103.593C351.74 104.868 351.667 106.162 351.521 107.475C351.375 108.75 351.155 110.082 350.863 111.473H315.434C315.946 115.065 317.006 117.981 318.615 120.221C320.261 122.423 322.254 124.045 324.593 125.088C326.97 126.131 329.511 126.652 332.217 126.652C335.397 126.652 338.359 126.227 341.101 125.378C343.844 124.489 346.366 123.331 348.669 121.901L349.327 134.068C347.244 135.227 344.648 136.25 341.54 137.139C338.432 138.027 334.922 138.471 331.009 138.471ZM315.764 101.739H337.92C337.92 100.001 337.609 98.2633 336.988 96.5251C336.366 94.7484 335.324 93.2614 333.861 92.064C332.436 90.8666 330.499 90.268 328.048 90.268C324.538 90.268 321.778 91.3494 319.767 93.5125C317.756 95.6754 316.421 98.4177 315.764 101.739ZM375.065 138.471C371.811 138.471 369.143 137.795 367.058 136.444C365.01 135.053 363.493 133.218 362.507 130.939C361.519 128.622 361.026 126.073 361.026 123.292V50.4075H374.626V117.382C374.626 120.472 374.791 122.674 375.12 123.987C375.486 125.262 376.144 126.034 377.095 126.305C378.046 126.536 379.416 126.652 381.207 126.652L380.001 138.471H375.065ZM405.415 138.471C401.795 138.471 398.523 138.104 395.598 137.371C392.71 136.637 389.803 135.574 386.878 134.184L388.084 121.901C390.9 123.64 393.661 125.049 396.366 126.131C399.108 127.174 401.978 127.695 404.977 127.695C407.681 127.695 409.747 127.232 411.174 126.305C412.599 125.378 413.312 123.91 413.312 121.901C413.312 120.395 412.929 119.159 412.161 118.193C411.429 117.228 410.314 116.359 408.815 115.586C407.316 114.814 405.451 113.983 403.222 113.095C399.858 111.782 396.987 110.353 394.611 108.808C392.271 107.263 390.479 105.409 389.236 103.246C388.03 101.044 387.426 98.3405 387.426 95.1346C387.426 91.813 388.249 88.8775 389.894 86.3283C391.54 83.7791 393.88 81.79 396.914 80.3608C399.948 78.9317 403.55 78.2171 407.718 78.2171C411.191 78.2171 414.3 78.6227 417.042 79.4338C419.82 80.2449 422.38 81.3457 424.72 82.7362L423.513 95.0187C421.064 93.2035 418.596 91.7164 416.109 90.5576C413.623 89.3603 410.899 88.7616 407.938 88.7616C405.598 88.7616 403.788 89.2637 402.508 90.268C401.229 91.2722 400.589 92.7013 400.589 94.5553C400.589 96.7956 401.484 98.4757 403.276 99.5958C405.067 100.716 407.938 102.087 411.887 103.709C414.446 104.752 416.657 105.834 418.523 106.954C420.424 108.074 421.996 109.31 423.239 110.662C424.482 112.014 425.397 113.558 425.982 115.297C426.603 116.996 426.914 118.966 426.914 121.206C426.914 124.875 426.072 128.004 424.39 130.592C422.745 133.141 420.314 135.092 417.096 136.444C413.916 137.795 410.021 138.471 405.415 138.471Z" fill="#1F71FF"/>
<path d="M464.739 138.471C460.571 138.471 456.97 137.757 453.934 136.328C450.9 134.899 448.067 132.948 445.434 130.476L449.492 127.463L448.834 137.313H436.111V50.4075H449.712V88.9934L446.421 86.7918C448.834 84.1653 451.522 82.1182 454.483 80.6505C457.482 79.1828 460.9 78.4489 464.739 78.4489C470.114 78.4489 474.629 79.82 478.286 82.5624C481.942 85.3047 484.702 88.9547 486.566 93.5125C488.468 98.0702 489.418 103.053 489.418 108.46C489.418 113.868 488.468 118.85 486.566 123.408C484.702 127.965 481.942 131.616 478.286 134.358C474.629 137.1 470.114 138.471 464.739 138.471ZM462.764 126.652C465.47 126.652 467.774 125.88 469.675 124.335C471.576 122.79 473.02 120.665 474.007 117.962C474.995 115.219 475.488 112.052 475.488 108.46C475.488 104.868 474.995 101.72 474.007 99.0164C473.02 96.2741 471.576 94.1304 469.675 92.5855C467.774 91.0404 465.47 90.268 462.764 90.268C459.584 90.268 456.988 91.0404 454.977 92.5855C452.966 94.1304 451.467 96.2741 450.48 99.0164C449.529 101.72 449.053 104.868 449.053 108.46C449.053 112.052 449.529 115.219 450.48 117.962C451.467 120.665 452.966 122.79 454.977 124.335C456.988 125.88 459.584 126.652 462.764 126.652ZM523.782 138.471C517.822 138.471 512.74 137.1 508.536 134.358C504.331 131.616 501.113 127.965 498.883 123.408C496.689 118.85 495.592 113.868 495.592 108.46C495.592 103.014 496.689 97.9928 498.883 93.3966C501.113 88.8003 504.331 85.1309 508.536 82.3885C512.74 79.6077 517.822 78.2171 523.782 78.2171C529.742 78.2171 534.823 79.6077 539.029 82.3885C543.233 85.1309 546.432 88.8003 548.626 93.3966C550.857 97.9928 551.971 103.014 551.971 108.46C551.971 113.868 550.857 118.85 548.626 123.408C546.432 127.965 543.233 131.616 539.029 134.358C534.823 137.1 529.742 138.471 523.782 138.471ZM523.782 126.652C528.352 126.652 531.862 124.972 534.311 121.612C536.798 118.213 538.041 113.829 538.041 108.46C538.041 103.014 536.798 98.5915 534.311 95.1926C531.862 91.755 528.352 90.0363 523.782 90.0363C519.248 90.0363 515.738 91.755 513.252 95.1926C510.766 98.5915 509.523 103.014 509.523 108.46C509.523 113.829 510.766 118.213 513.252 121.612C515.738 124.972 519.248 126.652 523.782 126.652ZM554.46 137.313L572.668 108.344L554.46 79.3759H570.694L580.675 96.1775L589.889 79.3759H606.122L587.914 108.344L606.122 137.313H589.889L579.907 120.511L570.694 137.313H554.46Z" fill="#ED1E79"/>
</svg>
