<svg width="607" height="192" viewBox="0 0 607 192" fill="none" xmlns="http://www.w3.org/2000/svg">
<path d="M42.8811 95.2694H87.706V95.1885C88.1163 95.1683 88.5939 95.1548 89.1387 95.1345H134.253C134.522 94.7636 134.784 94.3859 135.026 94.0083C140.542 85.7803 143.73 76.0013 143.73 65.5073C143.73 58.055 142.123 50.9533 139.21 44.5194C132.127 28.8594 117.363 17.1177 99.4571 13.6647C95.919 12.9903 92.2598 12.6261 88.5132 12.6261C82.5603 12.6261 76.8294 13.5298 71.4617 15.1956C55.0021 20.3145 41.9259 32.6294 36.3026 48.2691C34.3519 53.6712 33.2959 59.4712 33.2959 65.5073C33.2959 75.8596 36.4035 85.5173 41.7779 93.671C42.1277 94.2173 42.5044 94.7434 42.8811 95.2694V95.2694Z" stroke="white" stroke-width="7" stroke-miterlimit="10"/>
<path d="M71.4615 15.197C55.0019 20.3158 41.9324 32.6307 36.3024 48.2705C28.1769 43.9947 22.6343 35.4498 22.6343 25.61C22.6343 11.4809 34.0625 0.0292969 48.1476 0.0292969C58.54 0.0292969 67.4794 6.26093 71.4547 15.197H71.4615Z" fill="white"/>
<path d="M147.545 25.61C147.545 33.1028 144.336 39.8403 139.217 44.5207C132.134 28.854 117.37 17.1123 99.4641 13.6661C103.735 5.55953 112.244 0.0292969 122.031 0.0292969C136.123 0.0292969 147.545 11.4809 147.545 25.61Z" fill="white"/>
<path d="M75.9171 64.6993C78.6304 55.9809 75.2328 47.162 68.3282 45.0018C61.4236 42.8416 53.6267 48.1581 50.9134 56.8765C48.2001 65.5949 51.5978 74.4138 58.5023 76.574C65.4069 78.7342 73.2038 73.4177 75.9171 64.6993Z" fill="white"/>
<path d="M114.969 76.7204C121.873 74.5602 125.271 65.7414 122.558 57.0229C119.844 48.3045 112.048 42.9881 105.143 45.1483C98.2384 47.3084 94.8407 56.1273 97.554 64.8457C100.267 73.5641 108.064 78.8806 114.969 76.7204Z" fill="white"/>
<path d="M73.7293 62.6257C75.1224 58.1492 73.377 53.6208 69.8307 52.5113C66.2845 51.4018 62.2803 54.1314 60.8871 58.6079C59.4939 63.0844 61.2393 67.6128 64.7856 68.7223C68.3319 69.8318 72.3361 67.1023 73.7293 62.6257Z" fill="white"/>
<path d="M108.77 68.6571C112.316 67.5476 114.061 63.0192 112.668 58.5427C111.275 54.0661 107.271 51.3366 103.725 52.4461C100.178 53.5556 98.4329 58.084 99.826 62.5605C101.219 67.037 105.223 69.7666 108.77 68.6571Z" fill="white"/>
<path d="M85.2841 73.7158H90.5576C92.7908 73.7158 94.6069 75.5367 94.6069 77.7758C94.6069 81.2221 91.8155 84.0277 88.3715 84.0277H87.5509C84.0868 84.0277 81.2751 81.2086 81.2751 77.7354C81.2751 75.5165 83.0711 73.7226 85.2774 73.7226L85.2841 73.7158Z" fill="white"/>
<path d="M70.9099 84.2029C70.9099 84.2029 82.3247 96.039 88.2305 81.9099" stroke="white" stroke-width="5" stroke-miterlimit="10"/>
<path d="M104.704 84.3117C104.704 84.3117 93.2891 96.1478 87.3833 82.0187" stroke="white" stroke-width="5" stroke-miterlimit="10"/>
<path d="M89.4089 188.774C89.1062 189.057 88.6421 189.158 88.2318 188.942L17.4226 152.153V105.328L68.3081 112.584L70.6556 112.922L88.0502 95.4677V186.939C88.0502 187.836 88.6488 188.538 89.4089 188.774Z" fill="white" stroke="white" stroke-width="5" stroke-miterlimit="10"/>
<path d="M89.725 93.5385V188.031C89.725 188.328 89.604 188.591 89.4089 188.773C88.6488 188.537 88.0502 187.836 88.0502 186.939V94.4624H17.4226V93.5385C17.4226 92.3852 29.5033 92.1694 43.797 92.3245C64.4538 92.5538 89.725 93.5385 89.725 93.5385V93.5385Z" fill="white" stroke="white" stroke-width="5" stroke-miterlimit="10"/>
<path d="M160.304 93.7883H91.1562C98.9993 93.5051 120.167 92.7834 137.044 92.662C149.481 92.5744 159.584 92.8104 160.304 93.7883V93.7883Z" fill="white" stroke="white" stroke-width="5" stroke-miterlimit="10"/>
<path d="M160.351 104.572V152.517L90.8404 188.638C90.3696 188.881 89.8584 188.908 89.4077 188.773C89.6028 188.591 89.7238 188.328 89.7238 188.031V95.3258L106.587 112.247L116.529 110.831L160.345 104.572H160.351Z" fill="white" stroke="white" stroke-width="5" stroke-miterlimit="10"/>
<path d="M88.2987 93.8949C88.5677 93.8815 89.052 93.8612 89.7247 93.841V188.03C89.7247 188.327 89.6036 188.59 89.4085 188.772C88.6485 188.536 88.0498 187.835 88.0498 186.938V93.9017C88.0498 93.9017 88.1372 93.9017 88.2987 93.8949Z" fill="white" stroke="white" stroke-width="5" stroke-miterlimit="10"/>
<path d="M116.536 110.824L116.529 110.831L106.588 112.247L116.536 110.824Z" fill="white" stroke="white" stroke-width="5" stroke-miterlimit="10"/>
<path d="M88.0491 94.4631V95.468L70.6545 112.922L68.307 112.585L17.4215 105.328L6 103.696L16.7488 94.4631H88.0491Z" fill="white" stroke="white" stroke-width="5" stroke-miterlimit="10"/>
<path d="M89.052 94.4631L88.0498 95.468V94.4631H89.052Z" fill="white" stroke="white" stroke-width="5" stroke-miterlimit="10"/>
<path d="M171.235 103.02L160.351 104.571L116.535 110.823L106.587 112.246L89.7236 95.3252V93.8415C90.1339 93.8213 90.6115 93.8078 91.1564 93.7875H160.492L171.235 103.02V103.02Z" fill="white" stroke="white" stroke-width="5" stroke-miterlimit="10"/>
<path d="M116.536 110.824L116.529 110.831L106.588 112.247L116.536 110.824Z" fill="white" stroke="white" stroke-width="5" stroke-miterlimit="10"/>
<path d="M91.1568 93.7875C90.6119 93.8078 90.1344 93.8213 89.7241 93.8415V95.3252L88.9572 94.5564L88.8631 94.462L88.1904 93.7875H91.1568V93.7875Z" fill="white" stroke="white" stroke-width="5" stroke-miterlimit="10"/>
<path d="M56.9658 81.6474H50.6564C49.5197 81.6474 48.5981 82.5714 48.5981 83.7111C48.5981 84.8509 49.5197 85.7748 50.6564 85.7748H56.9658C58.1026 85.7748 59.0241 84.8509 59.0241 83.7111C59.0241 82.5714 58.1026 81.6474 56.9658 81.6474Z" fill="white"/>
<path d="M122.071 81.6002H115.761C114.624 81.6002 113.703 82.5242 113.703 83.6639C113.703 84.8037 114.624 85.7277 115.761 85.7277H122.071C123.207 85.7277 124.129 84.8037 124.129 83.6639C124.129 82.5242 123.207 81.6002 122.071 81.6002Z" fill="white"/>
<path d="M196.438 137.342V56.2305H243.713V70.5988H210.478V87.864H236.144V102.232H210.478V137.342H196.438ZM274.56 138.501C267.942 138.501 262.421 137.11 257.997 134.329C253.61 131.51 250.319 127.802 248.126 123.205C245.932 118.57 244.835 113.511 244.835 108.026C244.835 102.734 245.859 97.8483 247.906 93.3679C249.99 88.8874 253.025 85.2955 257.01 82.5917C260.996 79.8493 265.858 78.4782 271.599 78.4782C276.864 78.4782 281.251 79.6176 284.761 81.8965C288.271 84.1753 290.903 87.2266 292.658 91.0505C294.413 94.8357 295.291 99.0264 295.291 103.623C295.291 104.897 295.218 106.191 295.071 107.505C294.925 108.779 294.706 110.112 294.413 111.502H258.985C259.497 115.094 260.557 118.01 262.166 120.251C263.811 122.452 265.803 124.074 268.143 125.117C270.52 126.16 273.061 126.681 275.767 126.681C278.948 126.681 281.909 126.257 284.651 125.407C287.393 124.519 289.916 123.36 292.22 121.931L292.878 134.097C290.794 135.256 288.198 136.28 285.09 137.168C281.982 138.056 278.472 138.501 274.56 138.501ZM259.314 101.769H281.47C281.47 100.031 281.16 98.2926 280.538 96.5544C279.916 94.7777 278.874 93.2907 277.412 92.0933C275.986 90.8959 274.048 90.2973 271.599 90.2973C268.089 90.2973 265.328 91.3787 263.317 93.5418C261.306 95.7047 259.972 98.447 259.314 101.769ZM331.009 138.501C324.392 138.501 318.871 137.11 314.448 134.329C310.06 131.51 306.769 127.802 304.576 123.205C302.382 118.57 301.285 113.511 301.285 108.026C301.285 102.734 302.309 97.8483 304.356 93.3679C306.44 88.8874 309.475 85.2955 313.46 82.5917C317.445 79.8493 322.308 78.4782 328.048 78.4782C333.313 78.4782 337.701 79.6176 341.211 81.8965C344.721 84.1753 347.353 87.2266 349.108 91.0505C350.863 94.8357 351.74 99.0264 351.74 103.623C351.74 104.897 351.667 106.191 351.521 107.505C351.375 108.779 351.155 110.112 350.863 111.502H315.434C315.946 115.094 317.006 118.01 318.615 120.251C320.261 122.452 322.254 124.074 324.593 125.117C326.97 126.16 329.511 126.681 332.217 126.681C335.397 126.681 338.359 126.257 341.101 125.407C343.844 124.519 346.366 123.36 348.669 121.931L349.327 134.097C347.244 135.256 344.648 136.28 341.54 137.168C338.432 138.056 334.922 138.501 331.009 138.501ZM315.764 101.769H337.92C337.92 100.031 337.609 98.2926 336.988 96.5544C336.366 94.7777 335.324 93.2907 333.861 92.0933C332.436 90.8959 330.499 90.2973 328.048 90.2973C324.538 90.2973 321.778 91.3787 319.767 93.5418C317.756 95.7047 316.421 98.447 315.764 101.769ZM375.065 138.501C371.811 138.501 369.143 137.825 367.058 136.473C365.01 135.082 363.493 133.248 362.507 130.969C361.519 128.651 361.026 126.102 361.026 123.321V50.4368H374.626V117.412C374.626 120.502 374.791 122.703 375.12 124.016C375.486 125.291 376.144 126.064 377.095 126.334C378.046 126.566 379.416 126.681 381.207 126.681L380.001 138.501H375.065ZM405.415 138.501C401.795 138.501 398.523 138.134 395.598 137.4C392.71 136.666 389.803 135.604 386.878 134.213L388.084 121.931C390.9 123.669 393.661 125.079 396.366 126.16C399.108 127.203 401.978 127.724 404.977 127.724C407.681 127.724 409.747 127.261 411.174 126.334C412.599 125.407 413.312 123.939 413.312 121.931C413.312 120.424 412.929 119.188 412.161 118.223C411.429 117.257 410.314 116.388 408.815 115.616C407.316 114.843 405.451 114.013 403.222 113.124C399.858 111.811 396.987 110.382 394.611 108.837C392.271 107.292 390.479 105.438 389.236 103.275C388.03 101.073 387.426 98.3698 387.426 95.1639C387.426 91.8423 388.249 88.9068 389.894 86.3576C391.54 83.8083 393.88 81.8193 396.914 80.3901C399.948 78.961 403.55 78.2464 407.718 78.2464C411.191 78.2464 414.3 78.652 417.042 79.4631C419.82 80.2742 422.38 81.375 424.72 82.7655L423.513 95.048C421.064 93.2328 418.596 91.7457 416.109 90.5869C413.623 89.3896 410.899 88.7909 407.938 88.7909C405.598 88.7909 403.788 89.293 402.508 90.2973C401.229 91.3015 400.589 92.7306 400.589 94.5846C400.589 96.8249 401.484 98.505 403.276 99.6251C405.067 100.745 407.938 102.116 411.887 103.739C414.446 104.781 416.657 105.863 418.523 106.983C420.424 108.103 421.996 109.339 423.239 110.691C424.482 112.043 425.397 113.588 425.982 115.326C426.603 117.025 426.914 118.995 426.914 121.235C426.914 124.905 426.072 128.033 424.39 130.621C422.745 133.17 420.314 135.121 417.096 136.473C413.916 137.825 410.021 138.501 405.415 138.501Z" fill="white"/>
<path d="M464.739 138.501C460.571 138.501 456.97 137.786 453.934 136.357C450.9 134.928 448.067 132.977 445.434 130.505L449.492 127.493L448.834 137.342H436.111V50.4368H449.712V89.0227L446.421 86.8211C448.834 84.1946 451.522 82.1475 454.483 80.6798C457.482 79.2121 460.9 78.4782 464.739 78.4782C470.114 78.4782 474.629 79.8493 478.286 82.5917C481.942 85.334 484.702 88.984 486.566 93.5418C488.468 98.0995 489.418 103.082 489.418 108.489C489.418 113.897 488.468 118.879 486.566 123.437C484.702 127.995 481.942 131.645 478.286 134.387C474.629 137.129 470.114 138.501 464.739 138.501ZM462.764 126.681C465.47 126.681 467.774 125.909 469.675 124.364C471.576 122.819 473.02 120.695 474.007 117.991C474.995 115.249 475.488 112.081 475.488 108.489C475.488 104.897 474.995 101.749 474.007 99.0457C473.02 96.3034 471.576 94.1597 469.675 92.6148C467.774 91.0697 465.47 90.2973 462.764 90.2973C459.584 90.2973 456.988 91.0697 454.977 92.6148C452.966 94.1597 451.467 96.3034 450.48 99.0457C449.529 101.749 449.053 104.897 449.053 108.489C449.053 112.081 449.529 115.249 450.48 117.991C451.467 120.695 452.966 122.819 454.977 124.364C456.988 125.909 459.584 126.681 462.764 126.681ZM523.782 138.501C517.822 138.501 512.74 137.129 508.536 134.387C504.331 131.645 501.113 127.995 498.883 123.437C496.689 118.879 495.592 113.897 495.592 108.489C495.592 103.043 496.689 98.0221 498.883 93.4259C501.113 88.8296 504.331 85.1602 508.536 82.4178C512.74 79.6369 517.822 78.2464 523.782 78.2464C529.742 78.2464 534.823 79.6369 539.029 82.4178C543.233 85.1602 546.432 88.8296 548.626 93.4259C550.857 98.0221 551.971 103.043 551.971 108.489C551.971 113.897 550.857 118.879 548.626 123.437C546.432 127.995 543.233 131.645 539.029 134.387C534.823 137.129 529.742 138.501 523.782 138.501ZM523.782 126.681C528.352 126.681 531.862 125.001 534.311 121.641C536.798 118.242 538.041 113.858 538.041 108.489C538.041 103.043 536.798 98.6208 534.311 95.2219C531.862 91.7843 528.352 90.0656 523.782 90.0656C519.248 90.0656 515.738 91.7843 513.252 95.2219C510.766 98.6208 509.523 103.043 509.523 108.489C509.523 113.858 510.766 118.242 513.252 121.641C515.738 125.001 519.248 126.681 523.782 126.681ZM554.46 137.342L572.668 108.374L554.46 79.4052H570.694L580.675 96.2068L589.889 79.4052H606.122L587.914 108.374L606.122 137.342H589.889L579.907 120.54L570.694 137.342H554.46Z" fill="white"/>
</svg>
