<svg width="607" height="192" viewBox="0 0 607 192" fill="none" xmlns="http://www.w3.org/2000/svg">
<path d="M42.8811 95.2987H87.706V95.2178C88.1163 95.1976 88.5939 95.1841 89.1387 95.1638H134.253C134.522 94.7929 134.784 94.4152 135.026 94.0376C140.542 85.8096 143.73 76.0306 143.73 65.5366C143.73 58.0843 142.123 50.9826 139.21 44.5487C132.127 28.8887 117.363 17.147 99.4571 13.694C95.919 13.0196 92.2598 12.6554 88.5132 12.6554C82.5603 12.6554 76.8294 13.5591 71.4617 15.2249C55.0021 20.3438 41.9259 32.6587 36.3026 48.2984C34.3519 53.7005 33.2959 59.5005 33.2959 65.5366C33.2959 75.8889 36.4035 85.5466 41.7779 93.7003C42.1277 94.2466 42.5044 94.7727 42.8811 95.2987V95.2987Z" stroke="#3E5569" stroke-width="7" stroke-miterlimit="10"/>
<path d="M71.4615 15.2263C55.0019 20.3451 41.9324 32.66 36.3024 48.2998C28.1769 44.024 22.6343 35.4791 22.6343 25.6393C22.6343 11.5102 34.0625 0.0585938 48.1476 0.0585938C58.54 0.0585938 67.4794 6.29023 71.4547 15.2263H71.4615Z" fill="#3E5569"/>
<path d="M147.545 25.6393C147.545 33.1321 144.336 39.8696 139.217 44.55C132.134 28.8833 117.37 17.1416 99.4641 13.6953C103.735 5.58883 112.244 0.0585938 122.031 0.0585938C136.123 0.0585938 147.545 11.5102 147.545 25.6393Z" fill="#3E5569"/>
<path d="M75.9171 64.7286C78.6304 56.0102 75.2328 47.1913 68.3282 45.0311C61.4236 42.8709 53.6267 48.1874 50.9134 56.9058C48.2001 65.6242 51.5978 74.4431 58.5023 76.6033C65.4069 78.7635 73.2038 73.447 75.9171 64.7286Z" fill="#3E5569"/>
<path d="M114.969 76.7497C121.873 74.5895 125.271 65.7707 122.558 57.0522C119.844 48.3338 112.048 43.0174 105.143 45.1776C98.2384 47.3377 94.8407 56.1566 97.554 64.875C100.267 73.5934 108.064 78.9099 114.969 76.7497Z" fill="#3E5569"/>
<path d="M73.7293 62.655C75.1224 58.1785 73.377 53.6501 69.8307 52.5406C66.2845 51.4311 62.2803 54.1606 60.8871 58.6372C59.4939 63.1137 61.2393 67.6421 64.7856 68.7516C68.3319 69.8611 72.3361 67.1316 73.7293 62.655Z" fill="white"/>
<path d="M108.77 68.6864C112.316 67.5769 114.061 63.0485 112.668 58.572C111.275 54.0954 107.271 51.3659 103.725 52.4754C100.178 53.5849 98.4329 58.1133 99.826 62.5898C101.219 67.0663 105.223 69.7959 108.77 68.6864Z" fill="white"/>
<path d="M85.2841 73.7451H90.5576C92.7908 73.7451 94.6069 75.566 94.6069 77.8051C94.6069 81.2514 91.8155 84.057 88.3715 84.057H87.5509C84.0868 84.057 81.2751 81.2379 81.2751 77.7647C81.2751 75.5458 83.0711 73.7519 85.2774 73.7519L85.2841 73.7451Z" fill="#3E5569"/>
<path d="M70.9099 84.2322C70.9099 84.2322 82.3247 96.0683 88.2305 81.9392" stroke="#3E5569" stroke-width="5" stroke-miterlimit="10"/>
<path d="M104.704 84.341C104.704 84.341 93.2891 96.1771 87.3833 82.048" stroke="#3E5569" stroke-width="5" stroke-miterlimit="10"/>
<path d="M89.4089 188.803C89.1062 189.086 88.6421 189.187 88.2318 188.971L17.4226 152.182V105.357L68.3081 112.614L70.6556 112.951L88.0502 95.497V186.968C88.0502 187.865 88.6488 188.567 89.4089 188.803Z" fill="#3E5569" stroke="white" stroke-width="5" stroke-miterlimit="10"/>
<path d="M89.725 93.5678V188.061C89.725 188.357 89.604 188.62 89.4089 188.802C88.6488 188.566 88.0502 187.865 88.0502 186.968V94.4917H17.4226V93.5678C17.4226 92.4145 29.5033 92.1987 43.797 92.3538C64.4538 92.5831 89.725 93.5678 89.725 93.5678Z" fill="#3E5569" stroke="white" stroke-width="5" stroke-miterlimit="10"/>
<path d="M160.304 93.8176H91.1562C98.9993 93.5343 120.167 92.8127 137.044 92.6913C149.481 92.6037 159.584 92.8397 160.304 93.8176Z" fill="#3E5569" stroke="white" stroke-width="5" stroke-miterlimit="10"/>
<path d="M160.351 104.601V152.546L90.8404 188.668C90.3696 188.911 89.8584 188.937 89.4077 188.803C89.6028 188.621 89.7238 188.357 89.7238 188.061V95.3551L106.587 112.276L116.529 110.86L160.345 104.601H160.351Z" fill="#3E5569" stroke="white" stroke-width="5" stroke-miterlimit="10"/>
<path d="M88.2987 93.9242C88.5677 93.9108 89.052 93.8905 89.7247 93.8703V188.06C89.7247 188.356 89.6036 188.619 89.4085 188.802C88.6485 188.565 88.0498 187.864 88.0498 186.967V93.931C88.0498 93.931 88.1372 93.931 88.2987 93.9242Z" fill="#3E5569" stroke="white" stroke-width="5" stroke-miterlimit="10"/>
<path d="M116.536 110.853L116.529 110.86L106.588 112.276L116.536 110.853Z" fill="#3E5569" stroke="white" stroke-width="5" stroke-miterlimit="10"/>
<path d="M88.0491 94.4924V95.4972L70.6545 112.951L68.307 112.614L17.4215 105.357L6 103.725L16.7488 94.4924H88.0491Z" fill="#3E5569" stroke="white" stroke-width="5" stroke-miterlimit="10"/>
<path d="M89.052 94.4924L88.0498 95.4972V94.4924H89.052Z" fill="#3E5569" stroke="white" stroke-width="5" stroke-miterlimit="10"/>
<path d="M171.235 103.05L160.351 104.601L116.535 110.853L106.587 112.276L89.7236 95.3545V93.8708C90.1339 93.8506 90.6115 93.8371 91.1564 93.8168H160.492L171.235 103.05Z" fill="#3E5569" stroke="white" stroke-width="5" stroke-miterlimit="10"/>
<path d="M116.536 110.853L116.529 110.86L106.588 112.276L116.536 110.853Z" fill="#3E5569" stroke="white" stroke-width="5" stroke-miterlimit="10"/>
<path d="M91.1568 93.8168C90.6119 93.8371 90.1344 93.8506 89.7241 93.8708V95.3545L88.9572 94.5857L88.8631 94.4913L88.1904 93.8168H91.1568Z" fill="#3E5569" stroke="white" stroke-width="5" stroke-miterlimit="10"/>
<path d="M56.9658 81.6767H50.6564C49.5197 81.6767 48.5981 82.6007 48.5981 83.7404C48.5981 84.8802 49.5197 85.8041 50.6564 85.8041H56.9658C58.1026 85.8041 59.0241 84.8802 59.0241 83.7404C59.0241 82.6007 58.1026 81.6767 56.9658 81.6767Z" fill="#3E5569"/>
<path d="M122.071 81.6295H115.761C114.624 81.6295 113.703 82.5535 113.703 83.6932C113.703 84.833 114.624 85.757 115.761 85.757H122.071C123.207 85.757 124.129 84.833 124.129 83.6932C124.129 82.5535 123.207 81.6295 122.071 81.6295Z" fill="#3E5569"/>
<path d="M196.438 137.371V56.2598H243.713V70.6281H210.478V87.8933H236.144V102.262H210.478V137.371H196.438ZM274.56 138.53C267.942 138.53 262.421 137.139 257.997 134.358C253.61 131.539 250.319 127.831 248.126 123.235C245.932 118.6 244.835 113.54 244.835 108.055C244.835 102.764 245.859 97.8776 247.906 93.3972C249.99 88.9167 253.025 85.3248 257.01 82.621C260.996 79.8786 265.858 78.5075 271.599 78.5075C276.864 78.5075 281.251 79.6469 284.761 81.9258C288.271 84.2046 290.903 87.2559 292.658 91.0798C294.413 94.8649 295.291 99.0557 295.291 103.652C295.291 104.927 295.218 106.221 295.071 107.534C294.925 108.808 294.706 110.141 294.413 111.531H258.985C259.497 115.123 260.557 118.04 262.166 120.28C263.811 122.481 265.803 124.104 268.143 125.147C270.52 126.189 273.061 126.711 275.767 126.711C278.948 126.711 281.909 126.286 284.651 125.436C287.393 124.548 289.916 123.389 292.22 121.96L292.878 134.127C290.794 135.285 288.198 136.309 285.09 137.197C281.982 138.086 278.472 138.53 274.56 138.53ZM259.314 101.798H281.47C281.47 100.06 281.16 98.3219 280.538 96.5837C279.916 94.807 278.874 93.32 277.412 92.1226C275.986 90.9252 274.048 90.3266 271.599 90.3266C268.089 90.3266 265.328 91.408 263.317 93.5711C261.306 95.734 259.972 98.4763 259.314 101.798ZM331.009 138.53C324.392 138.53 318.871 137.139 314.448 134.358C310.06 131.539 306.769 127.831 304.576 123.235C302.382 118.6 301.285 113.54 301.285 108.055C301.285 102.764 302.309 97.8776 304.356 93.3972C306.44 88.9167 309.475 85.3248 313.46 82.621C317.445 79.8786 322.308 78.5075 328.048 78.5075C333.313 78.5075 337.701 79.6469 341.211 81.9258C344.721 84.2046 347.353 87.2559 349.108 91.0798C350.863 94.8649 351.74 99.0557 351.74 103.652C351.74 104.927 351.667 106.221 351.521 107.534C351.375 108.808 351.155 110.141 350.863 111.531H315.434C315.946 115.123 317.006 118.04 318.615 120.28C320.261 122.481 322.254 124.104 324.593 125.147C326.97 126.189 329.511 126.711 332.217 126.711C335.397 126.711 338.359 126.286 341.101 125.436C343.844 124.548 346.366 123.389 348.669 121.96L349.327 134.127C347.244 135.285 344.648 136.309 341.54 137.197C338.432 138.086 334.922 138.53 331.009 138.53ZM315.764 101.798H337.92C337.92 100.06 337.609 98.3219 336.988 96.5837C336.366 94.807 335.324 93.32 333.861 92.1226C332.436 90.9252 330.499 90.3266 328.048 90.3266C324.538 90.3266 321.778 91.408 319.767 93.5711C317.756 95.734 316.421 98.4763 315.764 101.798ZM375.065 138.53C371.811 138.53 369.143 137.854 367.058 136.502C365.01 135.112 363.493 133.277 362.507 130.998C361.519 128.681 361.026 126.131 361.026 123.35V50.4661H374.626V117.441C374.626 120.531 374.791 122.732 375.12 124.046C375.486 125.32 376.144 126.093 377.095 126.363C378.046 126.595 379.416 126.711 381.207 126.711L380.001 138.53H375.065ZM405.415 138.53C401.795 138.53 398.523 138.163 395.598 137.429C392.71 136.695 389.803 135.633 386.878 134.243L388.084 121.96C390.9 123.698 393.661 125.108 396.366 126.189C399.108 127.232 401.978 127.754 404.977 127.754C407.681 127.754 409.747 127.29 411.174 126.363C412.599 125.436 413.312 123.968 413.312 121.96C413.312 120.454 412.929 119.218 412.161 118.252C411.429 117.286 410.314 116.417 408.815 115.645C407.316 114.872 405.451 114.042 403.222 113.154C399.858 111.84 396.987 110.411 394.611 108.866C392.271 107.321 390.479 105.467 389.236 103.304C388.03 101.103 387.426 98.3991 387.426 95.1932C387.426 91.8716 388.249 88.9361 389.894 86.3869C391.54 83.8376 393.88 81.8486 396.914 80.4194C399.948 78.9903 403.55 78.2757 407.718 78.2757C411.191 78.2757 414.3 78.6813 417.042 79.4924C419.82 80.3035 422.38 81.4043 424.72 82.7948L423.513 95.0773C421.064 93.2621 418.596 91.775 416.109 90.6162C413.623 89.4189 410.899 88.8202 407.938 88.8202C405.598 88.8202 403.788 89.3223 402.508 90.3266C401.229 91.3308 400.589 92.7599 400.589 94.6139C400.589 96.8541 401.484 98.5343 403.276 99.6544C405.067 100.775 407.938 102.146 411.887 103.768C414.446 104.811 416.657 105.892 418.523 107.012C420.424 108.132 421.996 109.368 423.239 110.72C424.482 112.072 425.397 113.617 425.982 115.355C426.603 117.055 426.914 119.025 426.914 121.265C426.914 124.934 426.072 128.063 424.39 130.651C422.745 133.2 420.314 135.15 417.096 136.502C413.916 137.854 410.021 138.53 405.415 138.53Z" fill="#3E5569"/>
<path d="M464.739 138.53C460.571 138.53 456.97 137.815 453.934 136.386C450.9 134.957 448.067 133.007 445.434 130.535L449.492 127.522L448.834 137.371H436.111V50.4661H449.712V89.052L446.421 86.8504C448.834 84.2239 451.522 82.1768 454.483 80.7091C457.482 79.2414 460.9 78.5075 464.739 78.5075C470.114 78.5075 474.629 79.8786 478.286 82.621C481.942 85.3633 484.702 89.0133 486.566 93.5711C488.468 98.1288 489.418 103.111 489.418 108.519C489.418 113.926 488.468 118.909 486.566 123.466C484.702 128.024 481.942 131.674 478.286 134.416C474.629 137.159 470.114 138.53 464.739 138.53ZM462.764 126.711C465.47 126.711 467.774 125.938 469.675 124.393C471.576 122.848 473.02 120.724 474.007 118.02C474.995 115.278 475.488 112.111 475.488 108.519C475.488 104.927 474.995 101.779 474.007 99.075C473.02 96.3327 471.576 94.189 469.675 92.6441C467.774 91.099 465.47 90.3266 462.764 90.3266C459.584 90.3266 456.988 91.099 454.977 92.6441C452.966 94.189 451.467 96.3327 450.48 99.075C449.529 101.779 449.053 104.927 449.053 108.519C449.053 112.111 449.529 115.278 450.48 118.02C451.467 120.724 452.966 122.848 454.977 124.393C456.988 125.938 459.584 126.711 462.764 126.711ZM523.782 138.53C517.822 138.53 512.74 137.159 508.536 134.416C504.331 131.674 501.113 128.024 498.883 123.466C496.689 118.909 495.592 113.926 495.592 108.519C495.592 103.073 496.689 98.0514 498.883 93.4552C501.113 88.8589 504.331 85.1895 508.536 82.4471C512.74 79.6662 517.822 78.2757 523.782 78.2757C529.742 78.2757 534.823 79.6662 539.029 82.4471C543.233 85.1895 546.432 88.8589 548.626 93.4552C550.857 98.0514 551.971 103.073 551.971 108.519C551.971 113.926 550.857 118.909 548.626 123.466C546.432 128.024 543.233 131.674 539.029 134.416C534.823 137.159 529.742 138.53 523.782 138.53ZM523.782 126.711C528.352 126.711 531.862 125.031 534.311 121.67C536.798 118.271 538.041 113.888 538.041 108.519C538.041 103.073 536.798 98.6501 534.311 95.2512C531.862 91.8136 528.352 90.0949 523.782 90.0949C519.248 90.0949 515.738 91.8136 513.252 95.2512C510.766 98.6501 509.523 103.073 509.523 108.519C509.523 113.888 510.766 118.271 513.252 121.67C515.738 125.031 519.248 126.711 523.782 126.711ZM554.46 137.371L572.668 108.403L554.46 79.4345H570.694L580.675 96.2361L589.889 79.4345H606.122L587.914 108.403L606.122 137.371H589.889L579.907 120.569L570.694 137.371H554.46Z" fill="#3E5569"/>
</svg>
