<svg width="600" height="190" viewBox="0 0 600 190" fill="none" xmlns="http://www.w3.org/2000/svg">
<path d="M0 157.513V39.0618H69.0381V60.0447H20.5033V85.258H57.9856V106.241H20.5033V157.513H0ZM114.087 159.206C104.422 159.206 96.3598 157.175 89.8992 153.114C83.492 148.996 78.6866 143.581 75.4829 136.869C72.2793 130.1 70.6775 122.711 70.6775 114.702C70.6775 106.974 72.1726 99.8387 75.1625 93.2957C78.206 86.7526 82.6377 81.507 88.4576 77.5585C94.2775 73.5537 101.379 71.5514 109.762 71.5514C117.45 71.5514 123.858 73.2153 128.983 76.5433C134.109 79.8712 137.954 84.3272 140.516 89.9114C143.079 95.4391 144.361 101.559 144.361 108.271C144.361 110.133 144.254 112.022 144.04 113.94C143.827 115.802 143.507 117.747 143.079 119.778H91.3409C92.0884 125.024 93.6368 129.282 95.9861 132.554C98.3887 135.769 101.299 138.138 104.716 139.661C108.187 141.184 111.897 141.945 115.849 141.945C120.494 141.945 124.819 141.325 128.823 140.084C132.828 138.787 136.512 137.095 139.876 135.008L140.837 152.775C137.793 154.468 134.002 155.962 129.464 157.26C124.925 158.557 119.8 159.206 114.087 159.206ZM91.8215 105.564H124.178C124.178 103.026 123.724 100.487 122.816 97.9491C121.909 95.3545 120.387 93.183 118.251 91.4343C116.169 89.6857 113.339 88.8115 109.762 88.8115C104.636 88.8115 100.605 90.3908 97.668 93.5496C94.7313 96.7082 92.7825 100.713 91.8215 105.564ZM196.523 159.206C186.859 159.206 178.796 157.175 172.337 153.114C165.929 148.996 161.123 143.581 157.92 136.869C154.717 130.1 153.115 122.711 153.115 114.702C153.115 106.974 154.61 99.8387 157.599 93.2957C160.643 86.7526 165.074 81.507 170.895 77.5585C176.715 73.5537 183.815 71.5514 192.198 71.5514C199.887 71.5514 206.295 73.2153 211.42 76.5433C216.546 79.8712 220.391 84.3272 222.954 89.9114C225.517 95.4391 226.797 101.559 226.797 108.271C226.797 110.133 226.691 112.022 226.478 113.94C226.264 115.802 225.943 117.747 225.517 119.778H173.777C174.525 125.024 176.074 129.282 178.423 132.554C180.826 135.769 183.736 138.138 187.153 139.661C190.624 141.184 194.335 141.945 198.286 141.945C202.931 141.945 207.255 141.325 211.26 140.084C215.265 138.787 218.949 137.095 222.313 135.008L223.274 152.775C220.231 154.468 216.439 155.962 211.901 157.26C207.362 158.557 202.236 159.206 196.523 159.206ZM174.258 105.564H206.614C206.614 103.026 206.161 100.487 205.253 97.9491C204.345 95.3545 202.824 93.183 200.688 91.4343C198.606 89.6857 195.777 88.8115 192.198 88.8115C187.073 88.8115 183.042 90.3908 180.104 93.5496C177.168 96.7082 175.219 100.713 174.258 105.564ZM260.86 159.206C256.108 159.206 252.211 158.219 249.167 156.244C246.176 154.214 243.961 151.534 242.52 148.206C241.078 144.822 240.358 141.099 240.358 137.038V30.601H260.219V128.408C260.219 132.921 260.46 136.136 260.94 138.053C261.474 139.915 262.435 141.043 263.824 141.438C265.212 141.776 267.213 141.945 269.83 141.945L268.068 159.206H260.86ZM305.181 159.206C299.895 159.206 295.117 158.67 290.845 157.598C286.627 156.526 282.382 154.975 278.11 152.945L279.872 135.008C283.984 137.546 288.016 139.605 291.966 141.184C295.971 142.707 300.162 143.468 304.541 143.468C308.491 143.468 311.508 142.792 313.591 141.438C315.673 140.084 316.714 137.941 316.714 135.008C316.714 132.808 316.154 131.003 315.033 129.593C313.964 128.183 312.336 126.913 310.147 125.785C307.958 124.657 305.234 123.444 301.978 122.147C297.066 120.229 292.874 118.142 289.403 115.886C285.986 113.63 283.37 110.922 281.555 107.764C279.793 104.549 278.911 100.6 278.911 95.9185C278.911 91.0677 280.113 86.7809 282.516 83.0581C284.919 79.3353 288.336 76.4305 292.767 74.3434C297.198 72.2565 302.458 71.213 308.545 71.213C313.617 71.213 318.157 71.8053 322.161 72.9897C326.218 74.1742 329.957 75.7818 333.374 77.8124L331.612 95.7493C328.035 93.0983 324.43 90.9266 320.799 89.2345C317.168 87.486 313.191 86.6117 308.866 86.6117C305.449 86.6117 302.805 87.3449 300.937 88.8115C299.068 90.278 298.133 92.3649 298.133 95.0725C298.133 98.3441 299.442 100.798 302.058 102.433C304.674 104.069 308.866 106.072 314.633 108.441C318.37 109.964 321.6 111.543 324.324 113.179C327.1 114.815 329.396 116.619 331.211 118.594C333.026 120.568 334.362 122.824 335.216 125.362C336.124 127.844 336.578 130.721 336.578 133.992C336.578 139.351 335.349 143.92 332.892 147.699C330.489 151.422 326.94 154.27 322.241 156.244C317.596 158.219 311.909 159.206 305.181 159.206Z" fill="#3E5569"/>
<path d="M391.816 159.206C385.728 159.206 380.47 158.162 376.037 156.075C371.606 153.988 367.469 151.14 363.623 147.53L369.55 143.13L368.589 157.513H350.008V30.601H369.871V86.9501L365.066 83.735C368.589 79.8993 372.513 76.9099 376.838 74.7665C381.218 72.6231 386.209 71.5514 391.816 71.5514C399.665 71.5514 406.258 73.5537 411.599 77.5585C416.938 81.5633 420.968 86.8937 423.691 93.5496C426.469 100.205 427.856 107.482 427.856 115.379C427.856 123.275 426.469 130.552 423.691 137.207C420.968 143.863 416.938 149.194 411.599 153.198C406.258 157.203 399.665 159.206 391.816 159.206ZM388.932 141.945C392.884 141.945 396.247 140.817 399.024 138.561C401.8 136.305 403.909 133.203 405.351 129.254C406.793 125.25 407.513 120.624 407.513 115.379C407.513 110.133 406.793 105.536 405.351 101.587C403.909 97.5825 401.8 94.452 399.024 92.1959C396.247 89.9396 392.884 88.8115 388.932 88.8115C384.288 88.8115 380.496 89.9396 377.56 92.1959C374.623 94.452 372.434 97.5825 370.992 101.587C369.603 105.536 368.909 110.133 368.909 115.379C368.909 120.624 369.603 125.25 370.992 129.254C372.434 133.203 374.623 136.305 377.56 138.561C380.496 140.817 384.288 141.945 388.932 141.945ZM478.039 159.206C469.336 159.206 461.914 157.203 455.775 153.198C449.635 149.194 444.935 143.863 441.678 137.207C438.474 130.552 436.872 123.275 436.872 115.379C436.872 107.425 438.474 100.093 441.678 93.3803C444.935 86.6681 449.635 81.3095 455.775 77.3047C461.914 73.2436 469.336 71.213 478.039 71.213C486.743 71.213 494.164 73.2436 500.305 77.3047C506.445 81.3095 511.117 86.6681 514.321 93.3803C517.578 100.093 519.206 107.425 519.206 115.379C519.206 123.275 517.578 130.552 514.321 137.207C511.117 143.863 506.445 149.194 500.305 153.198C494.164 157.203 486.743 159.206 478.039 159.206ZM478.039 141.945C484.713 141.945 489.839 139.492 493.416 134.585C497.048 129.621 498.863 123.219 498.863 115.379C498.863 107.425 497.048 100.967 493.416 96.0031C489.839 90.9831 484.713 88.4731 478.039 88.4731C471.418 88.4731 466.292 90.9831 462.662 96.0031C459.032 100.967 457.217 107.425 457.217 115.379C457.217 123.219 459.032 129.621 462.662 134.585C466.292 139.492 471.418 141.945 478.039 141.945ZM522.841 157.513L549.43 115.209L522.841 72.9051H546.547L561.123 97.4415L574.579 72.9051H598.285L571.695 115.209L598.285 157.513H574.579L560.003 132.977L546.547 157.513H522.841Z" fill="#3E5569"/>
</svg>
