<svg width="600" height="190" viewBox="0 0 600 190" fill="none" xmlns="http://www.w3.org/2000/svg">
<path d="M0 157.455V39.0032H69.0381V59.9861H20.5033V85.1994H57.9856V106.182H20.5033V157.455H0ZM114.087 159.147C104.422 159.147 96.3598 157.116 89.8992 153.055C83.492 148.938 78.6866 143.523 75.4829 136.81C72.2793 130.042 70.6775 122.653 70.6775 114.643C70.6775 106.916 72.1726 99.7801 75.1625 93.2371C78.206 86.694 82.6377 81.4484 88.4576 77.4999C94.2775 73.4951 101.379 71.4928 109.762 71.4928C117.45 71.4928 123.858 73.1567 128.983 76.4847C134.109 79.8126 137.954 84.2686 140.516 89.8528C143.079 95.3805 144.361 101.501 144.361 108.213C144.361 110.074 144.254 111.964 144.04 113.882C143.827 115.743 143.507 117.689 143.079 119.719H91.3409C92.0884 124.965 93.6368 129.224 95.9861 132.495C98.3887 135.711 101.299 138.079 104.716 139.603C108.187 141.125 111.897 141.887 115.849 141.887C120.494 141.887 124.819 141.266 128.823 140.025C132.828 138.728 136.512 137.036 139.876 134.949L140.837 152.717C137.793 154.409 134.002 155.904 129.464 157.201C124.925 158.498 119.8 159.147 114.087 159.147ZM91.8215 105.505H124.178C124.178 102.967 123.724 100.429 122.816 97.8906C121.909 95.2959 120.387 93.1244 118.251 91.3757C116.169 89.6271 113.339 88.753 109.762 88.753C104.636 88.753 100.605 90.3322 97.668 93.491C94.7313 96.6496 92.7825 100.654 91.8215 105.505ZM196.523 159.147C186.859 159.147 178.796 157.116 172.337 153.055C165.929 148.938 161.123 143.523 157.92 136.81C154.717 130.042 153.115 122.653 153.115 114.643C153.115 106.916 154.61 99.7801 157.599 93.2371C160.643 86.694 165.074 81.4484 170.895 77.4999C176.715 73.4951 183.815 71.4928 192.198 71.4928C199.887 71.4928 206.295 73.1567 211.42 76.4847C216.546 79.8126 220.391 84.2686 222.954 89.8528C225.517 95.3805 226.797 101.501 226.797 108.213C226.797 110.074 226.691 111.964 226.478 113.882C226.264 115.743 225.943 117.689 225.517 119.719H173.777C174.525 124.965 176.074 129.224 178.423 132.495C180.826 135.711 183.736 138.079 187.153 139.603C190.624 141.125 194.335 141.887 198.286 141.887C202.931 141.887 207.255 141.266 211.26 140.025C215.265 138.728 218.949 137.036 222.313 134.949L223.274 152.717C220.231 154.409 216.439 155.904 211.901 157.201C207.362 158.498 202.236 159.147 196.523 159.147ZM174.258 105.505H206.614C206.614 102.967 206.161 100.429 205.253 97.8906C204.345 95.2959 202.824 93.1244 200.688 91.3757C198.606 89.6271 195.777 88.753 192.198 88.753C187.073 88.753 183.042 90.3322 180.104 93.491C177.168 96.6496 175.219 100.654 174.258 105.505ZM260.86 159.147C256.108 159.147 252.211 158.16 249.167 156.186C246.176 154.155 243.961 151.476 242.52 148.148C241.078 144.764 240.358 141.041 240.358 136.98V30.5424H260.219V128.35C260.219 132.862 260.46 136.077 260.94 137.995C261.474 139.856 262.435 140.984 263.824 141.379C265.212 141.718 267.213 141.887 269.83 141.887L268.068 159.147H260.86ZM305.181 159.147C299.895 159.147 295.117 158.611 290.845 157.539C286.627 156.468 282.382 154.916 278.11 152.886L279.872 134.949C283.984 137.487 288.016 139.546 291.966 141.125C295.971 142.648 300.162 143.41 304.541 143.41C308.491 143.41 311.508 142.733 313.591 141.379C315.673 140.025 316.714 137.882 316.714 134.949C316.714 132.749 316.154 130.944 315.033 129.534C313.964 128.124 312.336 126.855 310.147 125.727C307.958 124.599 305.234 123.386 301.978 122.089C297.066 120.171 292.874 118.084 289.403 115.828C285.986 113.571 283.37 110.864 281.555 107.705C279.793 104.49 278.911 100.542 278.911 95.8599C278.911 91.0091 280.113 86.7223 282.516 82.9995C284.919 79.2767 288.336 76.3719 292.767 74.2848C297.198 72.1979 302.458 71.1544 308.545 71.1544C313.617 71.1544 318.157 71.7467 322.161 72.9311C326.218 74.1156 329.957 75.7232 333.374 77.7538L331.612 95.6907C328.035 93.0397 324.43 90.868 320.799 89.1759C317.168 87.4274 313.191 86.5531 308.866 86.5531C305.449 86.5531 302.805 87.2863 300.937 88.753C299.068 90.2194 298.133 92.3064 298.133 95.0139C298.133 98.2855 299.442 100.739 302.058 102.375C304.674 104.011 308.866 106.013 314.633 108.382C318.37 109.905 321.6 111.484 324.324 113.12C327.1 114.756 329.396 116.561 331.211 118.535C333.026 120.509 334.362 122.765 335.216 125.304C336.124 127.786 336.578 130.662 336.578 133.934C336.578 139.292 335.349 143.861 332.892 147.64C330.489 151.363 326.94 154.212 322.241 156.186C317.596 158.16 311.909 159.147 305.181 159.147Z" fill="#1F71FF"/>
<path d="M391.816 159.147C385.728 159.147 380.47 158.103 376.037 156.017C371.606 153.929 367.469 151.081 363.623 147.471L369.55 143.071L368.589 157.455H350.008V30.5424H369.871V86.8916L365.066 83.6765C368.589 79.8407 372.513 76.8513 376.838 74.7079C381.218 72.5645 386.209 71.4928 391.816 71.4928C399.665 71.4928 406.258 73.4951 411.599 77.4999C416.938 81.5047 420.968 86.8351 423.691 93.491C426.469 100.147 427.856 107.423 427.856 115.32C427.856 123.217 426.469 130.493 423.691 137.149C420.968 143.805 416.938 149.135 411.599 153.14C406.258 157.145 399.665 159.147 391.816 159.147ZM388.932 141.887C392.884 141.887 396.247 140.759 399.024 138.503C401.8 136.246 403.909 133.144 405.351 129.196C406.793 125.191 407.513 120.566 407.513 115.32C407.513 110.074 406.793 105.477 405.351 101.529C403.909 97.5239 401.8 94.3935 399.024 92.1373C396.247 89.881 392.884 88.753 388.932 88.753C384.288 88.753 380.496 89.881 377.56 92.1373C374.623 94.3935 372.434 97.5239 370.992 101.529C369.603 105.477 368.909 110.074 368.909 115.32C368.909 120.566 369.603 125.191 370.992 129.196C372.434 133.144 374.623 136.246 377.56 138.503C380.496 140.759 384.288 141.887 388.932 141.887ZM478.039 159.147C469.336 159.147 461.914 157.145 455.775 153.14C449.635 149.135 444.935 143.805 441.678 137.149C438.474 130.493 436.872 123.217 436.872 115.32C436.872 107.367 438.474 100.034 441.678 93.3218C444.935 86.6096 449.635 81.2509 455.775 77.2461C461.914 73.185 469.336 71.1544 478.039 71.1544C486.743 71.1544 494.164 73.185 500.305 77.2461C506.445 81.2509 511.117 86.6096 514.321 93.3218C517.578 100.034 519.206 107.367 519.206 115.32C519.206 123.217 517.578 130.493 514.321 137.149C511.117 143.805 506.445 149.135 500.305 153.14C494.164 157.145 486.743 159.147 478.039 159.147ZM478.039 141.887C484.713 141.887 489.839 139.433 493.416 134.526C497.048 129.562 498.863 123.16 498.863 115.32C498.863 107.367 497.048 100.908 493.416 95.9445C489.839 90.9245 484.713 88.4145 478.039 88.4145C471.418 88.4145 466.292 90.9245 462.662 95.9445C459.032 100.908 457.217 107.367 457.217 115.32C457.217 123.16 459.032 129.562 462.662 134.526C466.292 139.433 471.418 141.887 478.039 141.887ZM522.841 157.455L549.43 115.151L522.841 72.8465H546.547L561.123 97.3829L574.579 72.8465H598.285L571.695 115.151L598.285 157.455H574.579L560.003 132.918L546.547 157.455H522.841Z" fill="#ED1E79"/>
</svg>
