<svg width="600" height="190" viewBox="0 0 600 190" fill="none" xmlns="http://www.w3.org/2000/svg">
<path d="M0 157.484V39.0325H69.0381V60.0154H20.5033V85.2287H57.9856V106.211H20.5033V157.484H0ZM114.087 159.176C104.422 159.176 96.3598 157.146 89.8992 153.085C83.492 148.967 78.6866 143.552 75.4829 136.84C72.2793 130.071 70.6775 122.682 70.6775 114.672C70.6775 106.945 72.1726 99.8094 75.1625 93.2664C78.206 86.7233 82.6377 81.4777 88.4576 77.5292C94.2775 73.5244 101.379 71.5221 109.762 71.5221C117.45 71.5221 123.858 73.186 128.983 76.514C134.109 79.8419 137.954 84.2979 140.516 89.8821C143.079 95.4098 144.361 101.53 144.361 108.242C144.361 110.103 144.254 111.993 144.04 113.911C143.827 115.772 143.507 117.718 143.079 119.749H91.3409C92.0884 124.995 93.6368 129.253 95.9861 132.525C98.3887 135.74 101.299 138.109 104.716 139.632C108.187 141.155 111.897 141.916 115.849 141.916C120.494 141.916 124.819 141.296 128.823 140.055C132.828 138.758 136.512 137.065 139.876 134.978L140.837 152.746C137.793 154.438 134.002 155.933 129.464 157.23C124.925 158.528 119.8 159.176 114.087 159.176ZM91.8215 105.535H124.178C124.178 102.996 123.724 100.458 122.816 97.9198C121.909 95.3252 120.387 93.1537 118.251 91.405C116.169 89.6564 113.339 88.7822 109.762 88.7822C104.636 88.7822 100.605 90.3615 97.668 93.5203C94.7313 96.6789 92.7825 100.684 91.8215 105.535ZM196.523 159.176C186.859 159.176 178.796 157.146 172.337 153.085C165.929 148.967 161.123 143.552 157.92 136.84C154.717 130.071 153.115 122.682 153.115 114.672C153.115 106.945 154.61 99.8094 157.599 93.2664C160.643 86.7233 165.074 81.4777 170.895 77.5292C176.715 73.5244 183.815 71.5221 192.198 71.5221C199.887 71.5221 206.295 73.186 211.42 76.514C216.546 79.8419 220.391 84.2979 222.954 89.8821C225.517 95.4098 226.797 101.53 226.797 108.242C226.797 110.103 226.691 111.993 226.478 113.911C226.264 115.772 225.943 117.718 225.517 119.749H173.777C174.525 124.995 176.074 129.253 178.423 132.525C180.826 135.74 183.736 138.109 187.153 139.632C190.624 141.155 194.335 141.916 198.286 141.916C202.931 141.916 207.255 141.296 211.26 140.055C215.265 138.758 218.949 137.065 222.313 134.978L223.274 152.746C220.231 154.438 216.439 155.933 211.901 157.23C207.362 158.528 202.236 159.176 196.523 159.176ZM174.258 105.535H206.614C206.614 102.996 206.161 100.458 205.253 97.9198C204.345 95.3252 202.824 93.1537 200.688 91.405C198.606 89.6564 195.777 88.7822 192.198 88.7822C187.073 88.7822 183.042 90.3615 180.104 93.5203C177.168 96.6789 175.219 100.684 174.258 105.535ZM260.86 159.176C256.108 159.176 252.211 158.189 249.167 156.215C246.176 154.184 243.961 151.505 242.52 148.177C241.078 144.793 240.358 141.07 240.358 137.009V30.5717H260.219V128.379C260.219 132.891 260.46 136.106 260.94 138.024C261.474 139.886 262.435 141.014 263.824 141.408C265.212 141.747 267.213 141.916 269.83 141.916L268.068 159.176H260.86ZM305.181 159.176C299.895 159.176 295.117 158.64 290.845 157.569C286.627 156.497 282.382 154.946 278.11 152.915L279.872 134.978C283.984 137.517 288.016 139.575 291.966 141.155C295.971 142.678 300.162 143.439 304.541 143.439C308.491 143.439 311.508 142.762 313.591 141.408C315.673 140.055 316.714 137.911 316.714 134.978C316.714 132.779 316.154 130.973 315.033 129.563C313.964 128.153 312.336 126.884 310.147 125.756C307.958 124.628 305.234 123.415 301.978 122.118C297.066 120.2 292.874 118.113 289.403 115.857C285.986 113.601 283.37 110.893 281.555 107.734C279.793 104.519 278.911 100.571 278.911 95.8892C278.911 91.0384 280.113 86.7516 282.516 83.0288C284.919 79.306 288.336 76.4012 292.767 74.3141C297.198 72.2272 302.458 71.1837 308.545 71.1837C313.617 71.1837 318.157 71.776 322.161 72.9604C326.218 74.1449 329.957 75.7525 333.374 77.7831L331.612 95.72C328.035 93.069 324.43 90.8973 320.799 89.2052C317.168 87.4567 313.191 86.5824 308.866 86.5824C305.449 86.5824 302.805 87.3156 300.937 88.7822C299.068 90.2487 298.133 92.3357 298.133 95.0432C298.133 98.3148 299.442 100.768 302.058 102.404C304.674 104.04 308.866 106.042 314.633 108.411C318.37 109.934 321.6 111.514 324.324 113.149C327.1 114.785 329.396 116.59 331.211 118.564C333.026 120.538 334.362 122.795 335.216 125.333C336.124 127.815 336.578 130.691 336.578 133.963C336.578 139.322 335.349 143.89 332.892 147.67C330.489 151.392 326.94 154.241 322.241 156.215C317.596 158.189 311.909 159.176 305.181 159.176Z" fill="white"/>
<path d="M391.816 159.176C385.728 159.176 380.47 158.133 376.037 156.046C371.606 153.959 367.469 151.11 363.623 147.5L369.55 143.101L368.589 157.484H350.008V30.5717H369.871V86.9208L365.066 83.7057C368.589 79.87 372.513 76.8806 376.838 74.7372C381.218 72.5938 386.209 71.5221 391.816 71.5221C399.665 71.5221 406.258 73.5244 411.599 77.5292C416.938 81.534 420.968 86.8644 423.691 93.5203C426.469 100.176 427.856 107.452 427.856 115.349C427.856 123.246 426.469 130.522 423.691 137.178C420.968 143.834 416.938 149.164 411.599 153.169C406.258 157.174 399.665 159.176 391.816 159.176ZM388.932 141.916C392.884 141.916 396.247 140.788 399.024 138.532C401.8 136.276 403.909 133.173 405.351 129.225C406.793 125.22 407.513 120.595 407.513 115.349C407.513 110.103 406.793 105.506 405.351 101.558C403.909 97.5532 401.8 94.4228 399.024 92.1666C396.247 89.9103 392.884 88.7822 388.932 88.7822C384.288 88.7822 380.496 89.9103 377.56 92.1666C374.623 94.4228 372.434 97.5532 370.992 101.558C369.603 105.506 368.909 110.103 368.909 115.349C368.909 120.595 369.603 125.22 370.992 129.225C372.434 133.173 374.623 136.276 377.56 138.532C380.496 140.788 384.288 141.916 388.932 141.916ZM478.039 159.176C469.336 159.176 461.914 157.174 455.775 153.169C449.635 149.164 444.935 143.834 441.678 137.178C438.474 130.522 436.872 123.246 436.872 115.349C436.872 107.396 438.474 100.063 441.678 93.351C444.935 86.6388 449.635 81.2802 455.775 77.2754C461.914 73.2143 469.336 71.1837 478.039 71.1837C486.743 71.1837 494.164 73.2143 500.305 77.2754C506.445 81.2802 511.117 86.6388 514.321 93.351C517.578 100.063 519.206 107.396 519.206 115.349C519.206 123.246 517.578 130.522 514.321 137.178C511.117 143.834 506.445 149.164 500.305 153.169C494.164 157.174 486.743 159.176 478.039 159.176ZM478.039 141.916C484.713 141.916 489.839 139.463 493.416 134.555C497.048 129.592 498.863 123.19 498.863 115.349C498.863 107.396 497.048 100.938 493.416 95.9738C489.839 90.9538 484.713 88.4438 478.039 88.4438C471.418 88.4438 466.292 90.9538 462.662 95.9738C459.032 100.938 457.217 107.396 457.217 115.349C457.217 123.19 459.032 129.592 462.662 134.555C466.292 139.463 471.418 141.916 478.039 141.916ZM522.841 157.484L549.43 115.18L522.841 72.8758H546.547L561.123 97.4122L574.579 72.8758H598.285L571.695 115.18L598.285 157.484H574.579L560.003 132.948L546.547 157.484H522.841Z" fill="white"/>
</svg>
