<svg width="600" height="192" viewBox="0 0 600 192" fill="none" xmlns="http://www.w3.org/2000/svg">
<rect y="0.205078" width="600" height="189.029" rx="8" fill="#3E5569"/>
<path d="M254.264 95.4451H299.089V95.3641C299.499 95.3439 299.977 95.3304 300.522 95.3102H345.636C345.905 94.9393 346.167 94.5616 346.41 94.1839C351.925 85.956 355.114 76.1769 355.114 65.683C355.114 58.2306 353.506 51.129 350.593 44.695C343.51 29.035 328.746 17.2934 310.84 13.8404C307.302 13.1659 303.643 12.8018 299.896 12.8018C293.943 12.8018 288.212 13.7055 282.845 15.3713C266.385 20.4901 253.309 32.805 247.686 48.4448C245.735 53.8469 244.679 59.6469 244.679 65.683C244.679 76.0353 247.787 85.693 253.161 93.8467C253.511 94.393 253.887 94.919 254.264 95.4451V95.4451Z" stroke="white" stroke-width="7" stroke-miterlimit="10"/>
<path d="M282.845 15.3728C266.385 20.4916 253.315 32.8065 247.685 48.4463C239.56 44.1705 234.017 35.6256 234.017 25.7858C234.017 11.6567 245.446 0.205078 259.531 0.205078C269.923 0.205078 278.862 6.43671 282.838 15.3728H282.845Z" fill="white"/>
<path d="M358.928 25.7858C358.928 33.2786 355.719 40.016 350.6 44.6965C343.517 29.0298 328.753 17.2881 310.847 13.8418C315.118 5.73531 323.627 0.205078 333.414 0.205078C347.506 0.205078 358.928 11.6567 358.928 25.7858Z" fill="white"/>
<path d="M287.3 64.8751C290.014 56.1567 286.616 47.3378 279.711 45.1776C272.807 43.0174 265.01 48.3339 262.296 57.0523C259.583 65.7707 262.981 74.5896 269.885 76.7498C276.79 78.9099 284.587 73.5935 287.3 64.8751Z" fill="white"/>
<path d="M326.352 76.8961C333.257 74.7359 336.654 65.9171 333.941 57.1987C331.228 48.4803 323.431 43.1638 316.526 45.324C309.622 47.4842 306.224 56.303 308.937 65.0214C311.651 73.7398 319.448 79.0563 326.352 76.8961Z" fill="white"/>
<path d="M285.112 62.8015C286.505 58.325 284.76 53.7966 281.214 52.6871C277.668 51.5776 273.663 54.3071 272.27 58.7837C270.877 63.2602 272.622 67.7886 276.169 68.8981C279.715 70.0076 283.719 67.2781 285.112 62.8015Z" fill="#3E5569"/>
<path d="M320.153 68.8329C323.699 67.7234 325.444 63.195 324.051 58.7185C322.658 54.242 318.654 51.5124 315.108 52.6219C311.561 53.7314 309.816 58.2598 311.209 62.7363C312.602 67.2129 316.606 69.9424 320.153 68.8329Z" fill="#3E5569"/>
<path d="M296.667 73.8916H301.941C304.174 73.8916 305.99 75.7125 305.99 77.9516C305.99 81.3979 303.199 84.2035 299.755 84.2035H298.934C295.47 84.2035 292.658 81.3844 292.658 77.9111C292.658 75.6923 294.454 73.8983 296.66 73.8983L296.667 73.8916Z" fill="white"/>
<path d="M282.293 84.3787C282.293 84.3787 293.708 96.2148 299.614 82.0857" stroke="white" stroke-width="5" stroke-miterlimit="10"/>
<path d="M316.087 84.4874C316.087 84.4874 304.672 96.3234 298.766 82.1943" stroke="white" stroke-width="5" stroke-miterlimit="10"/>
<path d="M300.792 188.949C300.489 189.233 300.025 189.334 299.615 189.118L228.806 152.328V105.504L279.691 112.76L282.039 113.098L299.433 95.6436V187.115C299.433 188.012 300.032 188.713 300.792 188.949Z" fill="white" stroke="#3E5569" stroke-width="5" stroke-miterlimit="10"/>
<path d="M301.108 93.7142V188.207C301.108 188.504 300.987 188.767 300.792 188.949C300.032 188.713 299.433 188.011 299.433 187.114V94.6381H228.806V93.7142C228.806 92.5609 240.886 92.3451 255.18 92.5002C275.837 92.7295 301.108 93.7142 301.108 93.7142Z" fill="white" stroke="#3E5569" stroke-width="5" stroke-miterlimit="10"/>
<path d="M371.687 93.964H302.539C310.382 93.6807 331.55 92.9591 348.427 92.8377C360.864 92.75 370.967 92.9861 371.687 93.964Z" fill="white" stroke="#3E5569" stroke-width="5" stroke-miterlimit="10"/>
<path d="M371.734 104.748V152.692L302.223 188.814C301.753 189.057 301.241 189.084 300.791 188.949C300.986 188.767 301.107 188.504 301.107 188.207V95.5015L317.97 112.423L327.912 111.006L371.728 104.748H371.734Z" fill="white" stroke="#3E5569" stroke-width="5" stroke-miterlimit="10"/>
<path d="M299.682 94.0708C299.951 94.0573 300.435 94.0371 301.108 94.0168V188.206C301.108 188.503 300.987 188.766 300.792 188.948C300.032 188.712 299.433 188.011 299.433 187.114V94.0775C299.433 94.0775 299.52 94.0775 299.682 94.0708Z" fill="white" stroke="#3E5569" stroke-width="5" stroke-miterlimit="10"/>
<path d="M327.919 111L327.912 111.007L317.971 112.423L327.919 111Z" fill="white" stroke="#3E5569" stroke-width="5" stroke-miterlimit="10"/>
<path d="M299.432 94.6389V95.6438L282.038 113.098L279.69 112.761L228.805 105.504L217.383 103.872L228.132 94.6389H299.432Z" fill="white" stroke="#3E5569" stroke-width="5" stroke-miterlimit="10"/>
<path d="M300.435 94.6389L299.433 95.6438V94.6389H300.435Z" fill="white" stroke="#3E5569" stroke-width="5" stroke-miterlimit="10"/>
<path d="M382.618 103.196L371.734 104.747L327.918 110.999L317.97 112.422L301.107 95.5011V94.0173C301.517 93.9971 301.995 93.9836 302.539 93.9634H371.876L382.618 103.196Z" fill="white" stroke="#3E5569" stroke-width="5" stroke-miterlimit="10"/>
<path d="M327.919 111L327.912 111.007L317.971 112.423L327.919 111Z" fill="white" stroke="#3E5569" stroke-width="5" stroke-miterlimit="10"/>
<path d="M302.54 93.9634C301.995 93.9836 301.517 93.9971 301.107 94.0173V95.5011L300.34 94.7322L300.246 94.6378L299.573 93.9634H302.54Z" fill="white" stroke="#3E5569" stroke-width="5" stroke-miterlimit="10"/>
<path d="M268.349 81.8232H262.039C260.903 81.8232 259.981 82.7472 259.981 83.887C259.981 85.0267 260.903 85.9507 262.039 85.9507H268.349C269.486 85.9507 270.407 85.0267 270.407 83.887C270.407 82.7472 269.486 81.8232 268.349 81.8232Z" fill="white"/>
<path d="M333.454 81.7761H327.144C326.007 81.7761 325.086 82.7001 325.086 83.8398C325.086 84.9796 326.007 85.9036 327.144 85.9036H333.454C334.59 85.9036 335.512 84.9796 335.512 83.8398C335.512 82.7001 334.59 81.7761 333.454 81.7761Z" fill="white"/>
</svg>
