<svg width="600" height="192" viewBox="0 0 600 192" fill="none" xmlns="http://www.w3.org/2000/svg">
<path d="M254.264 95.4744H299.089V95.3934C299.499 95.3732 299.977 95.3597 300.522 95.3395H345.636C345.905 94.9686 346.167 94.5909 346.41 94.2132C351.925 85.9853 355.114 76.2062 355.114 65.7123C355.114 58.2599 353.506 51.1583 350.593 44.7243C343.51 29.0643 328.746 17.3227 310.84 13.8697C307.302 13.1952 303.643 12.8311 299.896 12.8311C293.943 12.8311 288.212 13.7348 282.845 15.4006C266.385 20.5194 253.309 32.8343 247.686 48.4741C245.735 53.8762 244.679 59.6762 244.679 65.7123C244.679 76.0646 247.787 85.7223 253.161 93.876C253.511 94.4223 253.887 94.9483 254.264 95.4744V95.4744Z" stroke="#3E5569" stroke-width="7" stroke-miterlimit="10"/>
<path d="M282.845 15.4021C266.385 20.5209 253.315 32.8358 247.685 48.4756C239.56 44.1998 234.017 35.6549 234.017 25.8151C234.017 11.686 245.446 0.234375 259.531 0.234375C269.923 0.234375 278.862 6.46601 282.838 15.4021H282.845Z" fill="#3E5569"/>
<path d="M358.928 25.8151C358.928 33.3079 355.719 40.0453 350.6 44.7258C343.517 29.059 328.753 17.3174 310.847 13.8711C315.118 5.76461 323.627 0.234375 333.414 0.234375C347.506 0.234375 358.928 11.686 358.928 25.8151Z" fill="#3E5569"/>
<path d="M287.3 64.9044C290.014 56.186 286.616 47.3671 279.711 45.2069C272.807 43.0467 265.01 48.3632 262.296 57.0816C259.583 65.8 262.981 74.6189 269.885 76.7791C276.79 78.9392 284.587 73.6228 287.3 64.9044Z" fill="#3E5569"/>
<path d="M326.352 76.9254C333.257 74.7652 336.654 65.9464 333.941 57.228C331.228 48.5096 323.431 43.1931 316.526 45.3533C309.622 47.5135 306.224 56.3323 308.937 65.0507C311.651 73.7691 319.448 79.0856 326.352 76.9254Z" fill="#3E5569"/>
<path d="M285.112 62.8308C286.505 58.3543 284.76 53.8259 281.214 52.7164C277.668 51.6069 273.663 54.3364 272.27 58.813C270.877 63.2895 272.622 67.8179 276.169 68.9274C279.715 70.0369 283.719 67.3074 285.112 62.8308Z" fill="white"/>
<path d="M320.153 68.8622C323.699 67.7527 325.444 63.2243 324.051 58.7478C322.658 54.2713 318.654 51.5417 315.108 52.6512C311.561 53.7607 309.816 58.2891 311.209 62.7656C312.602 67.2422 316.606 69.9717 320.153 68.8622Z" fill="white"/>
<path d="M296.667 73.9209H301.941C304.174 73.9209 305.99 75.7418 305.99 77.9809C305.99 81.4272 303.199 84.2328 299.755 84.2328H298.934C295.47 84.2328 292.658 81.4137 292.658 77.9404C292.658 75.7216 294.454 73.9276 296.66 73.9276L296.667 73.9209Z" fill="#3E5569"/>
<path d="M282.293 84.408C282.293 84.408 293.708 96.2441 299.614 82.115" stroke="#3E5569" stroke-width="5" stroke-miterlimit="10"/>
<path d="M316.087 84.5167C316.087 84.5167 304.672 96.3527 298.766 82.2236" stroke="#3E5569" stroke-width="5" stroke-miterlimit="10"/>
<path d="M300.792 188.979C300.489 189.262 300.025 189.363 299.615 189.147L228.806 152.358V105.533L279.691 112.79L282.039 113.127L299.433 95.6729V187.144C299.433 188.041 300.032 188.743 300.792 188.979Z" fill="#3E5569" stroke="white" stroke-width="5" stroke-miterlimit="10"/>
<path d="M301.108 93.7435V188.236C301.108 188.533 300.987 188.796 300.792 188.978C300.032 188.742 299.433 188.041 299.433 187.144V94.6674H228.806V93.7435C228.806 92.5902 240.886 92.3744 255.18 92.5295C275.837 92.7588 301.108 93.7435 301.108 93.7435Z" fill="#3E5569" stroke="white" stroke-width="5" stroke-miterlimit="10"/>
<path d="M371.687 93.9933H302.539C310.382 93.71 331.55 92.9884 348.427 92.867C360.864 92.7793 370.967 93.0154 371.687 93.9933Z" fill="#3E5569" stroke="white" stroke-width="5" stroke-miterlimit="10"/>
<path d="M371.734 104.777V152.722L302.223 188.843C301.753 189.086 301.241 189.113 300.791 188.978C300.986 188.796 301.107 188.533 301.107 188.236V95.5308L317.97 112.452L327.912 111.036L371.728 104.777H371.734Z" fill="#3E5569" stroke="white" stroke-width="5" stroke-miterlimit="10"/>
<path d="M299.682 94.1001C299.951 94.0866 300.435 94.0664 301.108 94.0461V188.236C301.108 188.532 300.987 188.795 300.792 188.977C300.032 188.741 299.433 188.04 299.433 187.143V94.1068C299.433 94.1068 299.52 94.1068 299.682 94.1001Z" fill="#3E5569" stroke="white" stroke-width="5" stroke-miterlimit="10"/>
<path d="M327.919 111.029L327.912 111.036L317.971 112.452L327.919 111.029Z" fill="#3E5569" stroke="white" stroke-width="5" stroke-miterlimit="10"/>
<path d="M299.432 94.6682V95.6731L282.038 113.127L279.69 112.79L228.805 105.533L217.383 103.901L228.132 94.6682H299.432Z" fill="#3E5569" stroke="white" stroke-width="5" stroke-miterlimit="10"/>
<path d="M300.435 94.6682L299.433 95.6731V94.6682H300.435Z" fill="#3E5569" stroke="white" stroke-width="5" stroke-miterlimit="10"/>
<path d="M382.618 103.225L371.734 104.777L327.918 111.028L317.97 112.452L301.107 95.5304V94.0466C301.517 94.0264 301.995 94.0129 302.539 93.9927H371.876L382.618 103.225Z" fill="#3E5569" stroke="white" stroke-width="5" stroke-miterlimit="10"/>
<path d="M327.919 111.029L327.912 111.036L317.971 112.452L327.919 111.029Z" fill="#3E5569" stroke="white" stroke-width="5" stroke-miterlimit="10"/>
<path d="M302.54 93.9927C301.995 94.0129 301.517 94.0264 301.107 94.0466V95.5304L300.34 94.7615L300.246 94.6671L299.573 93.9927H302.54Z" fill="#3E5569" stroke="white" stroke-width="5" stroke-miterlimit="10"/>
<path d="M268.349 81.8525H262.039C260.903 81.8525 259.981 82.7765 259.981 83.9163C259.981 85.056 260.903 85.98 262.039 85.98H268.349C269.486 85.98 270.407 85.056 270.407 83.9163C270.407 82.7765 269.486 81.8525 268.349 81.8525Z" fill="#3E5569"/>
<path d="M333.454 81.8054H327.144C326.007 81.8054 325.086 82.7294 325.086 83.8691C325.086 85.0089 326.007 85.9329 327.144 85.9329H333.454C334.59 85.9329 335.512 85.0089 335.512 83.8691C335.512 82.7294 334.59 81.8054 333.454 81.8054Z" fill="#3E5569"/>
</svg>
