<svg width="174" height="192" viewBox="0 0 174 192" fill="none" xmlns="http://www.w3.org/2000/svg">
<path d="M43.2641 95.4451H88.0891V95.3641C88.4994 95.3439 88.977 95.3304 89.5218 95.3102H134.636C134.905 94.9393 135.167 94.5616 135.41 94.1839C140.925 85.956 144.114 76.1769 144.114 65.683C144.114 58.2306 142.506 51.129 139.593 44.695C132.51 29.035 117.746 17.2934 99.8402 13.8404C96.302 13.1659 92.6429 12.8018 88.8963 12.8018C82.9434 12.8018 77.2124 13.7055 71.8447 15.3713C55.3852 20.4901 42.309 32.805 36.6857 48.4448C34.735 53.8469 33.679 59.6469 33.679 65.683C33.679 76.0353 36.7866 85.693 42.161 93.8467C42.5108 94.393 42.8874 94.919 43.2641 95.4451V95.4451Z" stroke="white" stroke-width="7" stroke-miterlimit="10"/>
<path d="M71.8445 15.3728C55.3849 20.4916 42.3155 32.8065 36.6855 48.4463C28.5599 44.1705 23.0173 35.6256 23.0173 25.7858C23.0173 11.6567 34.4456 0.205078 48.5307 0.205078C58.923 0.205078 67.8625 6.43671 71.8378 15.3728H71.8445Z" fill="white"/>
<path d="M147.928 25.7858C147.928 33.2786 144.719 40.016 139.6 44.6965C132.517 29.0298 117.753 17.2881 99.8472 13.8418C104.118 5.73531 112.627 0.205078 122.414 0.205078C136.506 0.205078 147.928 11.6567 147.928 25.7858Z" fill="white"/>
<path d="M76.3002 64.8751C79.0135 56.1567 75.6158 47.3378 68.7112 45.1776C61.8066 43.0174 54.0098 48.3339 51.2965 57.0523C48.5831 65.7707 51.9808 74.5896 58.8854 76.7498C65.79 78.9099 73.5868 73.5935 76.3002 64.8751Z" fill="white"/>
<path d="M115.352 76.8961C122.257 74.7359 125.654 65.9171 122.941 57.1987C120.228 48.4803 112.431 43.1638 105.526 45.324C98.6217 47.4842 95.224 56.303 97.9373 65.0214C100.651 73.7398 108.448 79.0563 115.352 76.8961Z" fill="white"/>
<path d="M74.1123 62.8015C75.5055 58.325 73.7601 53.7966 70.2138 52.6871C66.6675 51.5776 62.6633 54.3071 61.2701 58.7837C59.877 63.2602 61.6224 67.7886 65.1686 68.8981C68.7149 70.0076 72.7191 67.2781 74.1123 62.8015Z" fill="white"/>
<path d="M109.153 68.8329C112.699 67.7234 114.444 63.195 113.051 58.7185C111.658 54.242 107.654 51.5124 104.108 52.6219C100.561 53.7314 98.8159 58.2598 100.209 62.7363C101.602 67.2129 105.606 69.9424 109.153 68.8329Z" fill="white"/>
<path d="M85.6672 73.8916H90.9407C93.1739 73.8916 94.99 75.7125 94.99 77.9516C94.99 81.3979 92.1985 84.2035 88.7546 84.2035H87.934C84.4698 84.2035 81.6582 81.3844 81.6582 77.9111C81.6582 75.6923 83.4542 73.8983 85.6604 73.8983L85.6672 73.8916Z" fill="white"/>
<path d="M71.293 84.3787C71.293 84.3787 82.7077 96.2148 88.6135 82.0857" stroke="white" stroke-width="5" stroke-miterlimit="10"/>
<path d="M105.087 84.4874C105.087 84.4874 93.6722 96.3234 87.7664 82.1943" stroke="white" stroke-width="5" stroke-miterlimit="10"/>
<path d="M89.792 188.949C89.4893 189.233 89.0252 189.334 88.6148 189.118L17.8057 152.328V105.504L68.6911 112.76L71.0387 113.098L88.4332 95.6436V187.115C88.4332 188.012 89.0319 188.713 89.792 188.949Z" fill="white" stroke="white" stroke-width="5" stroke-miterlimit="10"/>
<path d="M90.1081 93.7142V188.207C90.1081 188.504 89.987 188.767 89.792 188.949C89.0319 188.713 88.4332 188.011 88.4332 187.114V94.6381H17.8057V93.7142C17.8057 92.5609 29.8863 92.3451 44.18 92.5002C64.8369 92.7295 90.1081 93.7142 90.1081 93.7142V93.7142Z" fill="white" stroke="white" stroke-width="5" stroke-miterlimit="10"/>
<path d="M160.687 93.964H91.5393C99.3823 93.6807 120.55 92.9591 137.427 92.8377C149.864 92.75 159.967 92.9861 160.687 93.964V93.964Z" fill="white" stroke="white" stroke-width="5" stroke-miterlimit="10"/>
<path d="M160.734 104.748V152.692L91.2235 188.814C90.7526 189.057 90.2414 189.084 89.7908 188.949C89.9858 188.767 90.1069 188.504 90.1069 188.207V95.5015L106.97 112.423L116.912 111.006L160.728 104.748H160.734Z" fill="white" stroke="white" stroke-width="5" stroke-miterlimit="10"/>
<path d="M88.6817 94.0708C88.9508 94.0573 89.4351 94.0371 90.1077 94.0168V188.206C90.1077 188.503 89.9867 188.766 89.7916 188.948C89.0315 188.712 88.4329 188.011 88.4329 187.114V94.0775C88.4329 94.0775 88.5203 94.0775 88.6817 94.0708Z" fill="white" stroke="white" stroke-width="5" stroke-miterlimit="10"/>
<path d="M116.919 111L116.912 111.007L106.971 112.423L116.919 111Z" fill="white" stroke="white" stroke-width="5" stroke-miterlimit="10"/>
<path d="M88.4321 94.6389V95.6438L71.0376 113.098L68.69 112.761L17.8045 105.504L6.38306 103.872L17.1319 94.6389H88.4321Z" fill="white" stroke="white" stroke-width="5" stroke-miterlimit="10"/>
<path d="M89.4351 94.6389L88.4329 95.6438V94.6389H89.4351Z" fill="white" stroke="white" stroke-width="5" stroke-miterlimit="10"/>
<path d="M171.618 103.196L160.734 104.747L116.918 110.999L106.97 112.422L90.1067 95.5011V94.0173C90.517 93.9971 90.9946 93.9836 91.5394 93.9634H160.876L171.618 103.196V103.196Z" fill="white" stroke="white" stroke-width="5" stroke-miterlimit="10"/>
<path d="M116.919 111L116.912 111.007L106.971 112.423L116.919 111Z" fill="white" stroke="white" stroke-width="5" stroke-miterlimit="10"/>
<path d="M91.5398 93.9634C90.995 93.9836 90.5174 93.9971 90.1071 94.0173V95.5011L89.3403 94.7322L89.2461 94.6378L88.5735 93.9634H91.5398V93.9634Z" fill="white" stroke="white" stroke-width="5" stroke-miterlimit="10"/>
<path d="M57.3489 81.8232H51.0395C49.9027 81.8232 48.9812 82.7472 48.9812 83.887C48.9812 85.0267 49.9027 85.9507 51.0395 85.9507H57.3489C58.4856 85.9507 59.4072 85.0267 59.4072 83.887C59.4072 82.7472 58.4856 81.8232 57.3489 81.8232Z" fill="white"/>
<path d="M122.454 81.7761H116.144C115.007 81.7761 114.086 82.7001 114.086 83.8398C114.086 84.9796 115.007 85.9036 116.144 85.9036H122.454C123.59 85.9036 124.512 84.9796 124.512 83.8398C124.512 82.7001 123.59 81.7761 122.454 81.7761Z" fill="white"/>
</svg>
